<svg width="40" height="33" viewBox="0 0 40 33" fill="none" xmlns="http://www.w3.org/2000/svg">
<path d="M28.2 0.560001C28.6533 0.293335 29.2 0.133335 29.84 0.0800004C30.5067 0.0266678 31.1333 0.0800012 31.72 0.240001C31.9867 0.320001 32.3733 0.573335 32.88 1C33.3867 1.4 33.64 1.66667 33.64 1.8C33.64 1.88 33.7067 2.08 33.84 2.4C33.9733 2.69333 34.0667 3.13333 34.12 3.72C34.1467 4.30667 34.2667 4.74667 34.48 5.04C34.6933 5.30667 34.8267 5.6 34.88 5.92C34.96 6.24 35.0133 6.78667 35.04 7.56C35.0933 8.97334 35.3867 10.0533 35.92 10.8C36.2133 11.1733 36.4533 11.5733 36.64 12C36.88 12.4533 37.1067 12.7867 37.32 13C37.56 13.24 37.68 13.4 37.68 13.48C37.68 13.5867 37.84 13.8533 38.16 14.28C38.4 14.5733 38.5467 14.8 38.6 14.96C38.6533 15.12 38.6667 15.36 38.64 15.68C38.6133 15.8933 38.6667 16.1067 38.8 16.32C38.96 16.64 39.0267 17.48 39 18.84C39 20.1733 38.9067 21.2133 38.72 21.96C38.64 22.28 38.6 22.6133 38.6 22.96C38.5733 23.3067 38.44 23.6933 38.2 24.12C37.9333 24.52 37.7333 24.96 37.6 25.44C37.44 25.92 37.2133 26.3067 36.92 26.6C36.6267 26.8667 36.4 27.16 36.24 27.48C36.1067 27.7467 35.8933 27.9733 35.6 28.16C35.4133 28.2933 35.0933 28.52 34.64 28.84C34.32 29.08 33.7333 29.4 32.88 29.8C32.08 30.2 31.56 30.5067 31.32 30.72C30.5467 31.36 29.8667 31.72 29.28 31.8C28.88 31.8533 28.3733 32.04 27.76 32.36C27.3067 32.6 26.9733 32.7333 26.76 32.76C26.5733 32.8133 26.1333 32.8267 25.44 32.8C23.3333 32.7733 21.6933 32.7733 20.52 32.8C20.4133 32.8 20.2267 32.8 19.96 32.8C19.6933 32.8 19.4533 32.8 19.24 32.8C19.0267 32.8 18.84 32.8 18.68 32.8C18.3333 32.8 17.9333 32.8 17.48 32.8C16.8933 32.8 16.2133 32.76 15.44 32.68C14.6667 32.6 14.1867 32.5067 14 32.4C13.7067 32.2667 13.3333 32.16 12.88 32.08C12.4533 32 12.1067 31.9067 11.84 31.8C11.5733 31.6933 11.16 31.64 10.6 31.64C10.0133 31.64 9.56 31.5467 9.24 31.36C8.92 31.1467 8.57333 30.9867 8.2 30.88C7.82666 30.7733 7.54666 30.6533 7.36 30.52C7.2 30.3867 6.92 30.2 6.52 29.96C6.12 29.7467 5.92 29.6133 5.92 29.56C5.92 29.5067 5.70666 29.32 5.28 29C4.88 28.68 4.57333 28.4667 4.36 28.36C4.01333 28.1733 3.45333 27.6533 2.68 26.8C1.90666 25.92 1.44 25.2933 1.28 24.92C1.17333 24.6533 1.02666 24.3333 0.839995 23.96C0.546662 23.32 0.333329 22.12 0.199995 20.36C0.0666618 18.6 0.0933285 17.4667 0.279995 16.96C0.439995 16.6133 0.546662 16.1733 0.599995 15.64C0.706662 15.1067 0.813329 14.76 0.919995 14.6C1.05333 14.4667 1.2 14.2267 1.36 13.88C1.49333 13.5333 1.64 13.2533 1.8 13.04C1.98666 12.8 2.17333 12.48 2.36 12.08C2.70666 11.2533 3.06666 10.6267 3.44 10.2C3.65333 9.90667 3.89333 9.53334 4.16 9.08C4.37333 8.65334 4.52 8.41334 4.6 8.36C4.65333 8.28 4.74666 7.96 4.88 7.4C5.04 6.81333 5.18666 6.34667 5.32 6C5.48 5.6 5.6 5.25333 5.68 4.96C5.76 4.64 5.88 4.37333 6.04 4.16C6.17333 3.92 6.26666 3.69333 6.32 3.48C6.34666 3.24 6.48 2.98667 6.72 2.72C6.96 2.48 7.13333 2.22667 7.24 1.96C7.34666 1.72 7.48 1.52 7.64 1.36C7.82666 1.2 7.98666 1.12 8.12 1.12C8.41333 1.12 9.25333 0.906668 10.64 0.48C11.0133 0.346667 11.4267 0.333334 11.88 0.440001C12.36 0.520001 12.7467 0.680001 13.04 0.920002C13.1733 1.02667 13.4 1.36 13.72 1.92C14.0667 2.48 14.24 2.81334 14.24 2.92C14.24 3.24 14.4533 3.89333 14.88 4.88C15.3333 5.86667 15.6667 6.42667 15.88 6.56C16.04 6.66667 16.3067 6.72 16.68 6.72C17.0533 6.69333 17.3333 6.62667 17.52 6.52C17.6533 6.44 18.0267 6.38667 18.64 6.36C19.1467 6.36 19.56 6.34667 19.88 6.32C20.7867 6.26667 21.8667 6.44 23.12 6.84L23.96 7.12L24.32 6.72C24.56 6.42667 24.7467 6.10667 24.88 5.76C24.96 5.52 25.1067 5.13333 25.32 4.6C25.48 4.17333 25.6667 3.81333 25.88 3.52C26.12 3.17333 26.32 2.82667 26.48 2.48C26.6933 2 26.92 1.62667 27.16 1.36C27.4 1.09333 27.7467 0.826668 28.2 0.560001ZM20.88 9.72C20.5867 9.61333 20.1467 9.58667 19.56 9.64C19.2133 9.69333 18.8267 9.88 18.4 10.2C18 10.52 17.8 10.7867 17.8 11C17.8 11.1333 17.64 11.4 17.32 11.8C17.0267 12.0933 16.7733 12.4267 16.56 12.8C16.4 13.0667 16.1867 13.2933 15.92 13.48C15.6533 13.6667 15.52 13.7867 15.52 13.84C15.52 13.9733 15.4 14.1333 15.16 14.32C14.92 14.5067 14.68 14.64 14.44 14.72C14.0667 14.8267 13.68 15.0267 13.28 15.32C12.8267 15.6133 12.4533 15.7867 12.16 15.84C8.53333 16.5333 6.01333 16.4667 4.6 15.64C4.33333 15.5067 4.12 15.4667 3.96 15.52C3.8 15.5467 3.72 15.6533 3.72 15.84C3.72 16 3.66666 16.2267 3.56 16.52C3.4 16.8667 3.30666 17.9333 3.28 19.72C3.25333 21.1867 3.37333 22.1733 3.64 22.68C3.77333 22.92 3.85333 23.1867 3.88 23.48C3.93333 23.7467 4.13333 24.0533 4.48 24.4C4.56 24.5067 4.90666 24.88 5.52 25.52C5.92 25.92 6.29333 26.16 6.64 26.24C7.33333 26.4 8.13333 26.9067 9.04 27.76C9.57333 28.24 10.3333 28.6267 11.32 28.92C12.3333 29.2133 13.36 29.3467 14.4 29.32C15.5733 29.32 16.6267 29.4667 17.56 29.76C18.1467 29.92 18.5467 29.96 18.76 29.88C19.08 29.8 19.5733 29.7467 20.24 29.72C20.9333 29.6933 21.4133 29.72 21.68 29.8C21.92 29.88 22.52 29.92 23.48 29.92C24.44 29.92 25.0933 29.88 25.44 29.8C25.8133 29.7467 26.4267 29.56 27.28 29.24C28.1333 28.92 28.6267 28.6933 28.76 28.56C28.9733 28.4 29.2133 28.28 29.48 28.2C30.8133 27.88 31.5867 27.4933 31.8 27.04C31.9067 26.8533 32.08 26.7067 32.32 26.6C32.9067 26.28 33.5333 25.7333 34.2 24.96C34.8667 24.16 35.2 23.5467 35.2 23.12C35.2 22.8533 35.3333 22.44 35.6 21.88C35.84 21.4 35.9733 21.0533 36 20.84C36.0267 20.6267 35.9867 20.3867 35.88 20.12C35.7467 19.8533 35.7067 19.6667 35.76 19.56C35.8933 19.2933 35.9467 18.8533 35.92 18.24C35.92 17.6267 35.8667 17.1333 35.76 16.76C35.5467 16.0667 35.36 15.6533 35.2 15.52C35.0667 15.3867 34.8133 15.4133 34.44 15.6C33.9067 15.8933 32.9733 15.9867 31.64 15.88C30.3333 15.7467 29.4533 15.4933 29 15.12C28.8133 14.96 28.5867 14.88 28.32 14.88C28.08 14.88 27.88 14.8267 27.72 14.72C27.6133 14.6133 27.3867 14.56 27.04 14.56C26.6933 14.56 26.4 14.4933 26.16 14.36C25.8933 14.2267 25.68 14.16 25.52 14.16C25.3333 14.16 25 13.88 24.52 13.32C24.4133 13.1867 24.2533 13.0933 24.04 13.04C23.7733 12.9867 23.3733 12.6533 22.84 12.04C22.6267 11.8267 22.44 11.6533 22.28 11.52C22.0933 11.3067 21.9333 11.04 21.8 10.72C21.72 10.4267 21.6133 10.2267 21.48 10.12C21.3733 9.98667 21.1733 9.85333 20.88 9.72ZM11.48 18C11.8533 17.92 12.1333 17.92 12.32 18C12.5067 18.0533 12.76 18.2667 13.08 18.64C13.3733 18.96 13.5333 19.2 13.56 19.36C13.5867 19.52 13.5333 19.8267 13.4 20.28C13.2933 20.68 13.1333 20.9467 12.92 21.08C12.7333 21.1867 12.4133 21.2133 11.96 21.16C11.48 21.1333 11.16 21.08 11 21C10.8667 20.92 10.7333 20.7333 10.6 20.44C10.36 19.88 10.32 19.36 10.48 18.88C10.6667 18.4 11 18.1067 11.48 18ZM25.64 18.12C26.3867 17.9333 26.9867 18.12 27.44 18.68C27.92 19.24 28 19.88 27.68 20.6C27.3333 21.4533 26.5867 21.64 25.44 21.16C24.9333 20.9733 24.7067 20.4533 24.76 19.6C24.8133 18.72 25.1067 18.2267 25.64 18.12Z" fill="black"/>
</svg>
